# AST/ASF file generated using VICON BodyLanguage
# -----------------------------------------------
:version 1.10
:name VICON
:units
  mass 1.0
  length 0.45
  angle deg
:documentation
   .ast/.asf automatically generated from VICON data using
   VICON BodyBuilder and BodyLanguage model FoxedUp or BRILLIANT.MOD
:root
   order TX TY TZ RX RY RZ
   axis XYZ
   position 0 0 0  
   orientation 0 -0 0 
:bonedata
  begin
     id 1 
     name lhipjoint
     direction 0.500677 -0.737119 0.453848 
     length 2.34727 
     axis 0 -0 0  XYZ
  end
  begin
     id 2 
     name lfemur
     direction 0.34202 -0.939693 0  
     length 7.53653  
     axis 0 -0 20  XYZ
    dof rx ry rz
    limits (-160.0 20.0)
           (-70.0 70.0)
           (-60.0 70.0)
  end
  begin
     id 3 
     name ltibia
     direction 0.34202 -0.939693 0   
     length 6.85572   
     axis 0 -0 20   XYZ
    dof rx
    limits (-10.0 170.0)
  end
  begin
     id 4 
     name lfoot
     direction 0.155313 -0.426718 0.890949   
     length 2.18324   
     axis -90 -1.13533e-015 20   XYZ
    dof rx rz
    limits (-45.0 90.0)
           (-70.0 20.0)
  end
  begin
     id 5 
     name ltoes
     direction 1.53474e-011 -4.21647e-011 1   
     length 1.06748   
     axis -90 -1.13533e-015 20   XYZ
    dof rx
    limits (-90.0 20.0)
  end
  begin
     id 6 
     name rhipjoint
     direction -0.632471 -0.659587 0.406111   
     length 2.62319  
     axis 0 -0 0  XYZ 
  end
  begin
     id 7 
     name rfemur
     direction -0.34202 -0.939693 0   
     length 7.21735   
     axis 0 -0 -20   XYZ
    dof rx ry rz
    limits (-160.0 20.0)
           (-70.0 70.0)
           (-70.0 60.0)
  end
  begin
     id 8 
     name rtibia
     direction -0.34202 -0.939693 0   
     length 7.02558   
     axis 0 -0 -20   XYZ
    dof rx
    limits (-10.0 170.0)
 end
 begin
     id 9 
     name rfoot
     direction -0.16057 -0.441164 0.882945   
     length 2.10014  
     axis -90 1.13533e-015 -20   XYZ
    dof rx rz
    limits (-45.0 90.0)
           (-20.0 70.0)
  end
  begin
     id 10 
     name rtoes
     direction -1.53553e-011 -4.2192e-011 1   
     length 1.02554   
     axis -90 1.13533e-015 -20   XYZ
    dof rx
    limits (-90.0 20.0)
  end
  begin
     id 11 
     name lowerback
     direction 0.0401429 0.998861 -0.0258085   
     length 1.80848   
     axis 0 -0 0   XYZ
    dof rx ry rz
    limits (-20.0 45.0)
           (-30.0 30.0)
           (-30.0 30.0)
  end
  begin
     id 12 
     name upperback
     direction -0.0130978 0.999914 -0.000352645   
     length 1.8116   
     axis 0 -0 0   XYZ
    dof rx ry rz
    limits (-20.0 45.0)
           (-30.0 30.0)
           (-30.0 30.0)
  end
  begin
     id 13 
     name thorax
     direction -0.0300198 0.999453 0.0138573   
     length 1.81778   
     axis 0 -0 0   XYZ
    dof rx ry rz
    limits (-20.0 45.0)
           (-30.0 30.0)
           (-30.0 30.0)
  end
  begin
     id 14 
     name lowerneck
     direction -0.0401726 0.999191 -0.00173647   
     length 2.10594   
     axis 0 -0 0   XYZ
    dof rx ry rz
    limits (-20.0 45.0)
           (-30.0 30.0)
           (-30.0 30.0)
  end
  begin
     id 15 
     name upperneck
     direction 0.0119835 0.998501 0.0534085   
     length 2.07325   
     axis 0 -0 0   XYZ
    dof rx ry rz
    limits (-20.0 45.0)
           (-30.0 30.0)
           (-30.0 30.0)
  end
  begin
     id 16
     name head
     direction 0.00628309 0.999826 0.0175921  
     length 2.15096  
     axis 0 -0 0   XYZ
    dof rx ry rz
    limits (-20.0 45.0)
           (-30.0 30.0)
           (-30.0 30.0)
  end
  begin
     id 17 
     name lclavicle
     direction 0.895501 0.429681 -0.115981  
     length 4.18092  
     axis 0 -0 0   XYZ
    dof ry rz
    limits (-20.0 10.0)
           (0.0 20.0)
  end
  begin
     id 18 
     name lhumerus
     direction 1 -4.48961e-011 -3.38433e-028   
     length 5.77237   
     axis 180 -30 -90   XYZ
    dof rx ry rz
    limits (-60.0 90.0)
           (-90.0 90.0)
           (-90.0 90.0)
  end
  begin
     id 19
     name lradius
     direction 1 -4.4901e-011 1.11983e-026   
     length 2.91878   
     axis 180 -30 -90   XYZ
    dof rx
    limits (-10.0 170.0)
  end
  begin
     id 20
     name lwrist
     direction 1 -4.48934e-011 1.88176e-026   
     length 1.45939   
     axis -1.23311e-014 90 90   XYZ
    dof ry
    limits (-180.0 0.0)
 end
  begin
     id 21 
     name lhand
     direction 1 -4.4895e-011 3.76352e-026   
     length 1.06566   
     axis -2.40147e-014 90 90   XYZ
    dof rx rz
    limits (-90.0 90.0)
           (-45.0 45.0)
  end
  begin
     id 22 
     name lfingers
     direction 1 -4.49005e-011 7.52705e-026   
     length 0.859162   
     axis -4.80295e-014 90 90   XYZ
    dof rx
    limits (0.0 90.0)
  end
  begin
     id 23
     name lthumb
     direction 0.707107 -6.34885e-011 0.707107   
     length 1.23359   
     axis -90 45 -9.86935e-015   XYZ
    dof rx rz
    limits (-45.0 45.0)
           (-45.0 45.0)
  end
  begin
     id 24 
     name rclavicle
     direction -0.91006 0.40451 -0.0903492   
     length 4.23293  
     axis 0 -0 0   XYZ 
    dof ry rz
    limits (-10.0 20.0)
           (-20.0 0.0)
  end
  begin
     id 25 
     name rhumerus
     direction -1 -4.4897e-011 1.7415e-027  
     length 5.49854   
     axis 180 30 90   XYZ
    dof rx ry rz
    limits (-90.0 60.0)
           (-90.0 90.0)
           (-90.0 90.0)
  end
  begin
     id 26 
     name rradius
     direction -1 -4.48963e-011 1.21259e-026   
     length 3.1186   
     axis 180 30 90   XYZ
    dof rx
    limits (-10.0 170.0)
  end
  begin
     id 27 
     name rwrist
     direction -1 -4.48967e-011 1.88176e-026   
     length 1.5593   
     axis -1.23311e-014 -90 -90   XYZ
    dof ry
    limits (-180.0 0.0)
  end
  begin
     id 28
     name rhand
     direction -1 -4.4895e-011 3.76352e-026   
     length 0.71207   
     axis -2.40147e-014 -90 -90   XYZ
    dof rx rz
    limits (-90.0 90.0)
           (-45.0 45.0)
  end
  begin
     id 29
     name rfingers
     direction -1 -4.49005e-011 7.52705e-026   
     length 0.574089   
     axis -4.80295e-014 -90 -90   XYZ
    dof rx
    limits (0.0 90.0)
  end
  begin
     id 30
     name rthumb
     direction -0.707107 -6.34982e-011 0.707107   
     length 0.824281   
     axis -90 -45 9.86935e-015   XYZ
    dof rx rz
    limits (-45.0 45.0)
           (-45.0 45.0)
  end
:hierarchy
  begin
    root lhipjoint rhipjoint lowerback
    lhipjoint lfemur
    lfemur ltibia
    ltibia lfoot
    lfoot ltoes
    rhipjoint rfemur
    rfemur rtibia
    rtibia rfoot
    rfoot rtoes
    lowerback upperback
    upperback thorax
    thorax lowerneck lclavicle rclavicle
    lowerneck upperneck
    upperneck head
    lclavicle lhumerus
    lhumerus lradius
    lradius lwrist
    lwrist lhand lthumb
    lhand lfingers
    rclavicle rhumerus
    rhumerus rradius
    rradius rwrist
    rwrist rhand rthumb
    rhand rfingers
  end

#!OML:ASF C:\ViconDB\ViconDB\414\Spring2016\042216\male.ASF
:FULLY-SPECIFIED
:DEGREES
193
root -20.6045 17.433 9.16089 -241.301 86.7649 118.044
lowerback 0.903302 -4.19889 5.87861
upperback -1.11267 -5.42977 1.79543
thorax -2.02569 -2.75985 -1.26416
lowerneck -2.77453 4.63842 -2.24633
upperneck -10.3381 6.53056 1.1209
head -2.93992 3.3789 0.620294
rclavicle 1.35261e-013 -5.725e-014
rhumerus -33.5502 -11.0641 -82.5531
rradius 26.2317
rwrist 32.5105
rhand 11.4871 -21.3321
rfingers 7.12502
rthumb 36.5354 -47.5153
lclavicle 1.35261e-013 -5.725e-014
lhumerus -28.3958 3.88173 95.0889
lradius 42.7261
lwrist -6.41968
lhand -10.1186 15.0815
lfingers 7.12502
lthumb 15.8694 44.4512
rfemur -11.4203 6.06455 18.8064
rtibia 28.1324
rfoot -18.9878 -5.76767
rtoes -9.26827
lfemur -7.78898 4.50279 -24.6163
ltibia 50.9794
lfoot -19.5346 21.3016
ltoes -6.53332
194
root -20.5391 17.4321 9.12637 -240.453 86.5585 118.915
lowerback 1.12064 -4.19461 5.92986
upperback -1.10471 -5.40549 1.81281
thorax -2.14098 -2.75015 -1.25822
lowerneck -2.7086 4.68369 -2.23577
upperneck -10.4757 6.61677 1.34838
head -3.01023 3.41632 0.685883
rclavicle -3.94712e-014 3.33958e-014
rhumerus -33.2648 -11.0496 -82.6058
rradius 26.1004
rwrist 32.6487
rhand 11.638 -21.2807
rfingers 7.12502
rthumb 36.6783 -47.4277
lclavicle -3.94712e-014 3.33958e-014
lhumerus -28.4935 3.73618 95.1454
lradius 42.7647
lwrist -7.20106
lhand -10.0023 14.8857
lfingers 7.12502
lthumb 15.9814 44.2464
rfemur -11.058 6.5583 18.5797
rtibia 28.1286
rfoot -19.3523 -6.45622
rtoes -9.22205
lfemur -8.5149 4.0561 -24.6621
ltibia 50.4428
lfoot -19.929 22.0058
ltoes -6.9953
195
root -20.4732 17.4302 9.09437 -238.915 86.3221 120.431
lowerback 1.31649 -4.1479 5.93452
upperback -1.12335 -5.32672 1.81393
thorax -2.2652 -2.71374 -1.24668
lowerneck -2.75029 4.70816 -2.21505
upperneck -10.4841 6.67892 1.63539
head -3.01871 3.43961 0.774133
rclavicle -2.86995e-014 -1.27222e-014
rhumerus -33.0417 -10.9957 -82.7059
rradius 26.0365
rwrist 32.7648
rhand 11.6863 -21.1564
rfingers 7.12502
rthumb 36.7239 -47.2917
lclavicle -2.86995e-014 -1.27222e-014
lhumerus -28.591 3.64655 95.1673
lradius 42.6901
lwrist -7.79684
lhand -9.77316 14.5557
lfingers 7.12502
lthumb 16.2021 43.8986
rfemur -10.7442 7.23794 18.3717
rtibia 28.1608
rfoot -19.7105 -7.34972
rtoes -9.50405
lfemur -9.30586 3.44927 -24.6929
ltibia 49.8699
lfoot -20.6894 22.318
ltoes -6.97827
196
root -20.4096 17.4236 9.06241 -236.017 86.2125 123.299
lowerback 1.46413 -4.1194 6.10076
upperback -1.10955 -5.26991 1.87923
thorax -2.33941 -2.68738 -1.2624
lowerneck -2.83195 4.74655 -2.20486
upperneck -10.4613 6.75327 1.84803
head -3.00698 3.47182 0.841544
rclavicle 3.47128e-014 -7.95139e-015
rhumerus -32.7193 -10.6934 -82.8825
rradius 25.8788
rwrist 32.705
rhand 12.0022 -21.3362
rfingers 7.12502
rthumb 37.0228 -47.3948
lclavicle 3.47128e-014 -7.95139e-015
lhumerus -28.6117 3.50905 95.2729
lradius 42.6723
lwrist -8.10123
lhand -9.63508 14.5036
lfingers 7.12502
lthumb 16.335 43.8356
rfemur -10.4659 7.66056 18.332
rtibia 28.2048
rfoot -20.0993 -7.96703
rtoes -9.39498
lfemur -10.138 2.95785 -24.5145
ltibia 49.2845
lfoot -21.0907 22.5279
ltoes -7.06877
197
root -20.3465 17.4193 9.02752 -232.516 86.0242 126.786
lowerback 1.65714 -4.08312 6.31139
upperback -1.12964 -5.19536 1.93358
thorax -2.47796 -2.65496 -1.30935
lowerneck -2.82337 4.7513 -2.39249
upperneck -10.5401 6.79452 2.16609
head -3.05915 3.4918 0.973781
rclavicle 3.15571e-015 2.06736e-014
rhumerus -32.4913 -10.5176 -82.9313
rradius 25.7826
rwrist 32.7676
rhand 12.1074 -21.741
rfingers 7.12502
rthumb 37.1223 -47.7737
lclavicle 3.15571e-015 2.06736e-014
lhumerus -28.703 3.27219 95.4565
lradius 42.6256
lwrist -8.19573
lhand -9.66611 14.5747
lfingers 7.12502
lthumb 16.3052 43.9092
rfemur -10.1568 8.04746 18.2649
rtibia 28.2495
rfoot -20.5293 -8.61732
rtoes -9.61592
lfemur -10.9801 2.32758 -24.3666
ltibia 48.687
lfoot -21.8509 22.5679
ltoes -7.12804
198
root -20.2794 17.4118 8.99526 -230.25 85.7271 129.045
lowerback 1.78797 -4.03966 6.34845
upperback -1.1147 -5.12723 1.90285
thorax -2.5373 -2.62302 -1.35537
lowerneck -2.85099 4.72813 -2.19726
upperneck -10.5871 6.77239 2.19996
head -3.0628 3.47447 0.952162
rclavicle 6.44808e-014 -4.45278e-014
rhumerus -32.2278 -10.4633 -83.089
rradius 25.6002
rwrist 33.0457
rhand 11.5843 -21.2761
rfingers 7.12502
rthumb 36.6274 -47.436
lclavicle 6.44808e-014 -4.45278e-014
lhumerus -28.7525 3.17673 95.5158
lradius 42.5544
lwrist -8.228
lhand -9.70195 14.5014
lfingers 7.12502
lthumb 16.2707 43.8388
rfemur -9.82011 8.2057 18.0753
rtibia 28.2817
rfoot -20.9344 -9.09849
rtoes -9.64138
lfemur -11.7961 1.76268 -24.3035
ltibia 48.0719
lfoot -22.3307 22.6076
ltoes -7.35052
199
root -20.2133 17.4036 8.9674 -226.79 85.4746 132.508
lowerback 1.93642 -4.02639 6.40214
upperback -1.12598 -5.09282 1.93549
thorax -2.63188 -2.60807 -1.34123
lowerneck -2.78484 4.76673 -2.22774
upperneck -10.671 6.8545 2.47167
head -3.11997 3.50932 1.04068
rclavicle 1.62506e-014 3.02153e-014
rhumerus -32.0183 -10.3648 -83.2394
rradius 25.5097
rwrist 33.0043
rhand 11.8901 -21.435
rfingers 7.12502
rthumb 36.9167 -47.5209
lclavicle 1.62506e-014 3.02153e-014
lhumerus -28.9164 3.14659 95.5314
lradius 42.5438
lwrist -8.43356
lhand -9.47806 14.4789
lfingers 7.12502
lthumb 16.4862 43.7984
rfemur -9.46818 8.31326 18.0276
rtibia 28.3087
rfoot -21.3451 -9.52359
rtoes -9.61056
lfemur -12.6157 1.13984 -24.0702
ltibia 47.4422
lfoot -22.7923 22.5049
ltoes -7.10661
